<?xml version="1.0" encoding="utf-8"?>
<!-- Generator: Adobe Illustrator 16.0.0, SVG Export Plug-In . SVG Version: 6.00 Build 0)  -->
<!DOCTYPE svg PUBLIC "-//W3C//DTD SVG 1.1//EN" "http://www.w3.org/Graphics/SVG/1.1/DTD/svg11.dtd">
<svg version="1.1" id="folder" xmlns="http://www.w3.org/2000/svg" xmlns:xlink="http://www.w3.org/1999/xlink" x="0px" y="0px"
	 width="612px" height="792px" viewBox="0 0 612 792" enable-background="new 0 0 612 792" xml:space="preserve">
<g>
	<circle fill="#DBDBDB" cx="236.64" cy="338.88" r="175.44"/>
	<circle fill="#DBDBDB" cx="236.64" cy="338.88" r="175.44"/>
	<g>
		<path fill="#E44D3A" d="M317.538,256.578c-2.087,0-4.176-0.797-5.77-2.391l-23.076-23.077c-3.187-3.187-3.187-8.352,0-11.538
			s8.352-3.187,11.538,0l23.076,23.076c3.187,3.187,3.187,8.352,0,11.539C321.714,255.783,319.627,256.578,317.538,256.578z"/>
		<path fill="#E44D3A" d="M294.462,256.578c-2.087,0-4.177-0.797-5.77-2.391c-3.187-3.187-3.187-8.352,0-11.539l23.076-23.076
			c3.187-3.187,8.352-3.187,11.538,0s3.187,8.352,0,11.538l-23.076,23.077C298.637,255.783,296.549,256.578,294.462,256.578z"/>
		<circle fill="#E44D3A" cx="395.76" cy="269.52" r="8.16"/>
		<circle fill="#E44D3A" cx="371.28" cy="179.76" r="8.16"/>
	</g>
	<g>
		<path fill="#FFDBD9" d="M493.68,620.4h-326.4c-13.519,0-24.479-10.961-24.479-24.48V579.6h375.359v16.32
			C518.159,609.439,507.198,620.4,493.68,620.4z"/>
		<path fill="#E44D3A" d="M493.68,628.56h-326.4c-17.996,0-32.64-14.643-32.64-32.64V579.6c0-4.506,3.653-8.159,8.16-8.159h375.359
			c4.507,0,8.16,3.653,8.16,8.159v16.32C526.32,613.917,511.677,628.56,493.68,628.56z M150.96,587.76v8.16
			c0,9.001,7.319,16.32,16.319,16.32h326.4c9,0,16.32-7.319,16.32-16.32v-8.16H150.96z"/>
	</g>
	<g>
		<path fill="#FFDBD9" d="M225.95,595.92h286.183c16.849,0,30.509-13.354,30.509-29.827V342.96c0-18.027-14.612-32.64-32.64-32.64
			H271.612l-18.104-37.552c-5.464-7.479-14.286-11.917-23.687-11.917h-90.919c-15.873,0-28.741,12.581-28.741,28.099v19.768v35.899
			v221.477c0,16.474,13.657,29.827,30.508,29.827h43.14"/>
		<path fill="#E44D3A" d="M512.131,604.08H225.95c-4.507,0-8.16-3.653-8.16-8.16c0-4.506,3.653-8.16,8.16-8.16h286.181
			c12.324,0,22.349-9.719,22.349-21.667V342.96c0-13.499-10.981-24.48-24.479-24.48H271.612c-3.131,0-5.989-1.793-7.352-4.619
			l-17.755-36.824c-3.945-5.041-10.133-8.029-16.687-8.029H138.9c-11.349,0.002-20.58,8.948-20.58,19.939v277.144
			c0,11.95,10.025,21.669,22.349,21.669h43.138c4.507,0,8.16,3.654,8.16,8.16c0,4.507-3.653,8.16-8.16,8.16h-43.138
			c-21.32,0-38.668-17.042-38.668-37.987V288.947c0-19.994,16.55-36.257,36.899-36.257h90.919c11.977,0,23.297,5.706,30.277,15.263
			c0.292,0.398,0.547,0.824,0.761,1.271l15.878,32.936H510c22.494,0,40.8,18.305,40.8,40.8v223.133
			C550.8,587.038,533.451,604.08,512.131,604.08L512.131,604.08z"/>
	</g>
	<path fill="#E44D3A" d="M273.36,318.48h-57.12c-4.506,0-8.159-3.654-8.159-8.16s3.653-8.16,8.159-8.16h57.12
		c4.507,0,8.16,3.653,8.16,8.16S277.866,318.48,273.36,318.48z"/>
</g>
</svg>
