<?xml version="1.0" encoding="utf-8"?>
<!-- Generator: Adobe Illustrator 16.0.0, SVG Export Plug-In . SVG Version: 6.00 Build 0)  -->
<!DOCTYPE svg PUBLIC "-//W3C//DTD SVG 1.1//EN" "http://www.w3.org/Graphics/SVG/1.1/DTD/svg11.dtd">
<svg version="1.1" id="Layer_1" xmlns="http://www.w3.org/2000/svg" xmlns:xlink="http://www.w3.org/1999/xlink" x="0px" y="0px"
	 width="179.938px" height="216.369px" viewBox="0 0 179.938 216.369" enable-background="new 0 0 179.938 216.369"
	 xml:space="preserve">
<g id="BACKGROUND">
</g>
<g id="OBJECTS">
	<g>
		<ellipse fill="#B5B5B5" cx="103.67" cy="202.392" rx="46.622" ry="8.625"/>
		<g>
			<path fill="#FFC3B7" d="M99.529,169.515c0.089,0.142,0.178,0.281,0.268,0.422c3.268-3.258,8.502-3.228,13.083-2.684
				c4.582,0.545,9.551,1.316,13.547-0.99c4.696-2.712,6.316-8.649,9.911-12.71c4.927-5.563,12.905-6.997,20.247-8.146
				c3.043-0.477,6.147-0.979,8.875-2.413c3.134-1.647,5.572-4.457,7.122-7.642c1.958-4.027,2.512-8.92,0.627-12.982
				c-4.88-10.521-22.13-6.398-30.902-5.354c-10.162,1.211-20.368,3-29.771,7.034c-9.404,4.034-18.029,10.505-23.118,19.382
				C92.485,152.229,94.622,161.662,99.529,169.515z"/>
			<g>
				<g>
					<g>
						<g>
							<path fill="#FFFFFF" d="M69.001,70.43c-1.13,2.35-2.48,4.51-4.05,6.48c-8.62,10.89-23.65,16.22-42.341,17.779
								c2.181,6.07,1.561,10.44-1.63,12.03c-1.06,0.53-2.41,0.75-4.029,0.63c-10.851-0.84-19.5-24.41-0.881-28.439
								c11.99-2.601,22.98-6.831,23.631-14.281L57.27,69.34l1.8,0.17L69.001,70.43z"/>
							<path fill="#FFD9D2" d="M22.612,94.689c2.181,6.07,1.561,10.44-1.63,12.03c-2.569-4.25-4-9.19-4.08-14.15
								c-0.02-0.739,0.021-1.54,0.45-2.149c0.351-0.5,0.931-0.8,1.5-1.05c7.141-3.141,15.72-1.971,22.561-5.71
								c5.89-3.221,9.43-9.5,14.729-13.62c0.34-0.271,0.73-0.54,1.13-0.7c0.36-0.15,0.73-0.22,1.11-0.141
								c0.26,0.051,0.479,0.16,0.689,0.311c0.341,0.229,0.62,0.54,0.891,0.85c1.62,1.86,3.25,3.73,4.56,5.82
								c0.15,0.24,0.3,0.49,0.431,0.73C56.332,87.8,41.302,93.13,22.612,94.689z"/>
						</g>
						<path fill="#FFFFFF" d="M171.151,125.931c-4.25,3.869-8.949,7.239-13.979,10.029c-2.311,1.279-4.74,2.479-6.58,4.38
							c-5.41,5.56-1.21,13.96-10.12,17.3c-0.16,0.07-0.32,0.12-0.479,0.18c-3.82,1.302-7.961,1.07-11.98,0.82
							c-3.57-0.22-7.14-0.43-10.71-0.649c-3.04-0.189-6.24-0.351-9.01,0.94c-6.83,3.159-1.78,12.85-12.561,11.489
							c-3.609-0.46-6.84-2.45-9.8-4.569c-15.31-10.961-26.93-26.641-34.42-43.92c-3.59-8.271-6.9-18.44-9.11-29.291
							c-5.89-28.85-4.08-62.51,20.561-78.12c12.06-7.64,26.84-11.02,40.99-9.05c0.84,0.12,1.689,0.25,2.5,0.47
							c1.159,0.3,2.27,0.76,3.199,1.51c1.4,1.141,2.24,3.141,1.67,4.801c-0.06,0.21-0.149,0.42-0.27,0.62
							c-0.59,1-1.64,1.6-2.67,2.13c-3.85,1.96-7.95,3.42-12.18,4.319c8.43-1.8,19.59,8.44,23.79,14.54
							c12.02,17.45-1.03,39.28,10.1,57.37c4.88,7.94,13.95,15.8,23.35,17.48c5.32,0.95,10.88,0.189,16.11,1.55
							c2.57,0.671,5.21,2.04,6.27,4.479C177.542,118.71,174.362,123.021,171.151,125.931z"/>
						<path fill="#FFD9D2" d="M174.151,122.649c-0.229,0.311-0.46,0.609-0.71,0.91c-0.71,0.859-1.5,1.659-2.29,2.369
							c-4.25,3.87-8.949,7.24-13.979,10.03c-3.772,2.09-7.243,4.742-10.946,7.002c-2.843,1.733-5.615,4.119-6.323,7.374
							c-0.27,1.24-0.223,2.553-0.667,3.74c-0.98,2.625-4.181,3.885-6.951,3.468c-6.578-0.99-14.066-9.021-18.572-13.454
							c-14.03-13.811-25.931-29.8-35.13-47.21c-5.71-10.78-10.431-22.28-11.891-34.391c-1.449-12.109,0.601-24.949,7.49-35.021
							c5.85-8.55,14.811-14.6,24.36-18.63c2.59-1.09,5.229-2.05,7.91-2.9c1.159,0.3,2.27,0.76,3.199,1.51
							c1.4,1.141,2.24,3.141,1.67,4.801c-0.06,0.21-0.149,0.42-0.27,0.62c-0.59,1-1.64,1.6-2.67,2.13
							c-3.851,1.96-7.95,3.42-12.18,4.319c1.6-0.34,3.3-0.25,5.029,0.17c5.82,1.391,11.99,6.44,16.021,10.931
							c1.09,1.21,2.02,2.39,2.74,3.439c12.02,17.45-1.03,39.28,10.1,57.37c4.88,7.94,13.95,15.8,23.35,17.48
							c5.32,0.95,10.88,0.189,16.11,1.55c2.57,0.671,5.21,2.04,6.27,4.479C176.972,117.39,175.932,120.21,174.151,122.649z"/>
						<g>
							<g>
								<path fill="#FFC3B7" d="M81.251,60.43c-0.26,0.09-0.521,0.15-0.8,0.18c-3.7,0.46-7.271-3.31-7.971-8.439
									c-0.71-5.12,1.71-9.641,5.4-10.101c0.18-0.029,0.36-0.04,0.53-0.04c0,0,0.029,0,0.09,0c3.47,0,6.689,3.641,7.359,8.471
									C86.512,55.25,84.481,59.47,81.251,60.43z"/>
							</g>
						</g>
						<g>
							<g>
								<path fill="#FFC3B7" d="M64.711,50.06c-0.78,3.37-2.98,5.94-5.4,6.59c-0.67,0.19-1.37,0.221-2.06,0.08
									c-3.13-0.649-4.86-4.689-3.86-9.02c0.99-4.34,4.33-7.32,7.46-6.681c0.24,0.051,0.46,0.12,0.68,0.21
									C64.222,42.29,65.622,46.05,64.711,50.06z"/>
							</g>
							<path fill="#E44D3A" d="M64.711,50.06c-0.78,3.37-2.98,5.94-5.4,6.59c-4.42-3.37-4-10.8,2.22-15.41
								C64.222,42.29,65.622,46.05,64.711,50.06z"/>
						</g>
						<g>
							<path fill="#FFFFFF" d="M107.092,79.189c-1.88,7.59-7.73,11.66-14.59,14.32c-3.75,1.46-7.65,2.53-11.59,3.33
								c-1.181,0.25-12.33,2.479-12.591,1.76c2.23,6.22,1.521,10.66-1.89,12.15c-1.02,0.449-2.28,0.63-3.78,0.51
								c-10.84-0.83-19.5-24.4-0.88-28.44c6.36-1.38,14.62-1.88,19.971-5.949c5.949-4.53,11.239-8.07,19.18-7.32
								c1.51,0.14,3.06,0.46,4.27,1.38c0.92,0.7,1.511,1.65,1.851,2.73c0.18,0.52,0.29,1.069,0.35,1.63
								C107.532,76.58,107.401,77.939,107.092,79.189z"/>
						</g>
						<path fill="#E44D3A" d="M63.867,64.664c3.454,0.445,7.274,10.11,3.707,11.499c-1.444,0.562-2.992-0.726-4.535-0.589
							c-0.988,0.087-1.868,0.753-2.859,0.767c-1.458,0.019-2.588-1.442-2.737-2.893C57.085,69.994,59.646,64.122,63.867,64.664z"/>
					</g>
				</g>
				<path fill="#FFFFFF" d="M174.151,122.649c-0.68-1.061-1.55-1.989-2.62-2.76c-3.079-2.229-7.109-2.511-10.88-3
					c-15.409-2-31.33-10.091-37-24.551c-4.229-10.771-2.069-22.83-2.14-34.4c-0.07-11.569-3.8-24.859-14.45-29.37
					c3.47,0.011,6.931,0.66,10.19,1.851c1.09,1.21,2.02,2.39,2.74,3.439c12.02,17.45-1.03,39.28,10.1,57.37
					c4.88,7.94,13.95,15.8,23.35,17.48c5.32,0.95,10.88,0.188,16.11,1.55c2.57,0.67,5.21,2.04,6.27,4.479
					C176.972,117.39,175.932,120.21,174.151,122.649z"/>
				<path fill="#FFD9D2" d="M107.092,79.189c-1.88,7.59-7.73,11.66-14.59,14.32c-3.75,1.46-7.65,2.53-11.59,3.33
					c-1.181,0.25-12.33,2.479-12.591,1.76c2.23,6.22,1.521,10.66-1.89,12.15c0.32-1.689,0.12-3.58-0.39-5.23
					c-0.98-3.2-2.811-6.2-2.98-9.54c-0.029-0.64,0.021-1.319,0.391-1.83c0.489-0.649,1.359-0.85,2.159-0.989
					c13.45-2.421,27.971-4.971,37.45-14.811c1.42-1.479,2.69-3.09,3.98-4.689c0.18,0.52,0.29,1.069,0.35,1.63
					C107.532,76.58,107.401,77.939,107.092,79.189z"/>
			</g>
		</g>
		<path fill="#E44D3A" d="M81.251,60.43c-2.41-0.69-4.09-3.18-5.34-6.93c-1.5-4.5-0.381-8.88,2.5-11.471c0,0,0.029,0,0.09,0
			c3.47,0,6.689,3.641,7.359,8.471C86.512,55.25,84.481,59.47,81.251,60.43z"/>
	</g>
</g>
</svg>
